<svg width="199" height="199" viewBox="0 0 199 199" fill="none" xmlns="http://www.w3.org/2000/svg">
<circle cx="99.5" cy="99.5" r="99.5" fill="#3B5284"/>
<path d="M91.125 152.25C91.125 152.25 82.25 152.25 82.25 143.375C82.25 134.5 91.125 107.875 126.625 107.875C162.125 107.875 171 134.5 171 143.375C171 152.25 162.125 152.25 162.125 152.25H91.125ZM126.625 99C133.686 99 140.459 96.1949 145.452 91.2017C150.445 86.2086 153.25 79.4364 153.25 72.375C153.25 65.3136 150.445 58.5414 145.452 53.5483C140.459 48.5551 133.686 45.75 126.625 45.75C119.564 45.75 112.791 48.5551 107.798 53.5483C102.805 58.5414 100 65.3136 100 72.375C100 79.4364 102.805 86.2086 107.798 91.2017C112.791 96.1949 119.564 99 126.625 99Z" fill="white"/>
<path fill-rule="evenodd" clip-rule="evenodd" d="M75.292 152.25C73.9763 149.479 73.3202 146.442 73.375 143.375C73.375 131.349 79.41 118.969 90.557 110.36C84.9932 108.646 79.1965 107.807 73.375 107.875C37.875 107.875 29 134.5 29 143.375C29 152.25 37.875 152.25 37.875 152.25H75.292Z" fill="white"/>
<path d="M68.9375 99C74.822 99 80.4655 96.6624 84.6264 92.5014C88.7874 88.3405 91.125 82.697 91.125 76.8125C91.125 70.928 88.7874 65.2845 84.6264 61.1236C80.4655 56.9626 74.822 54.625 68.9375 54.625C63.053 54.625 57.4095 56.9626 53.2486 61.1236C49.0876 65.2845 46.75 70.928 46.75 76.8125C46.75 82.697 49.0876 88.3405 53.2486 92.5014C57.4095 96.6624 63.053 99 68.9375 99Z" fill="white"/>
</svg>
