<svg width="199" height="199" viewBox="0 0 199 199" fill="none" xmlns="http://www.w3.org/2000/svg">
<circle cx="99.5" cy="99.5" r="99.5" fill="#5BA8A0"/>
<g clip-path="url(#clip0)">
<path fill-rule="evenodd" clip-rule="evenodd" d="M116.773 126.099C111.807 133.986 106.095 114.337 99.8605 114.337C93.4491 114.337 87.4682 133.633 82.2792 125.553C77.8204 118.588 73.9613 111.093 70.9094 107.226C39.3445 107.226 38.6987 153.09 38.6987 153.09H161.645C161.645 153.09 163.813 107.026 128.32 107.026C125.183 111.054 121.293 118.949 116.773 126.106V126.099Z" fill="white"/>
<path fill-rule="evenodd" clip-rule="evenodd" d="M99.4135 107.188C87.913 107.188 76.5586 75.1384 76.5586 61.962C76.5586 48.7626 87.913 38.077 99.4212 38.077C110.922 38.077 122.268 48.7626 122.268 61.962C122.268 75.1384 110.922 107.172 99.4212 107.172L99.4135 107.188Z" fill="white"/>
</g>
<defs>
<clipPath id="clip0">
<rect width="123" height="123" fill="white" transform="translate(38 38)"/>
</clipPath>
</defs>
</svg>
