<svg width="199" height="199" viewBox="0 0 199 199" fill="none" xmlns="http://www.w3.org/2000/svg">
<circle cx="99.5" cy="99.5" r="99.5" fill="#CBE54E"/>
<path d="M90.125 152.25C90.125 152.25 81.25 152.25 81.25 143.375C81.25 134.5 90.125 107.875 125.625 107.875C161.125 107.875 170 134.5 170 143.375C170 152.25 161.125 152.25 161.125 152.25H90.125ZM125.625 99C132.686 99 139.459 96.1949 144.452 91.2017C149.445 86.2086 152.25 79.4364 152.25 72.375C152.25 65.3136 149.445 58.5414 144.452 53.5483C139.459 48.5551 132.686 45.75 125.625 45.75C118.564 45.75 111.791 48.5551 106.798 53.5483C101.805 58.5414 99 65.3136 99 72.375C99 79.4364 101.805 86.2086 106.798 91.2017C111.791 96.1949 118.564 99 125.625 99Z" fill="white"/>
<path fill-rule="evenodd" clip-rule="evenodd" d="M74.292 152.25C72.9763 149.479 72.3202 146.442 72.375 143.375C72.375 131.349 78.41 118.969 89.557 110.36C83.9932 108.646 78.1965 107.807 72.375 107.875C36.875 107.875 28 134.5 28 143.375C28 152.25 36.875 152.25 36.875 152.25H74.292Z" fill="white"/>
<path d="M67.9375 99C73.822 99 79.4655 96.6624 83.6264 92.5014C87.7874 88.3405 90.125 82.697 90.125 76.8125C90.125 70.928 87.7874 65.2845 83.6264 61.1236C79.4655 56.9626 73.822 54.625 67.9375 54.625C62.053 54.625 56.4095 56.9626 52.2486 61.1236C48.0876 65.2845 45.75 70.928 45.75 76.8125C45.75 82.697 48.0876 88.3405 52.2486 92.5014C56.4095 96.6624 62.053 99 67.9375 99Z" fill="white"/>
</svg>
