<svg width="21" height="26" viewBox="0 0 21 26" fill="none" xmlns="http://www.w3.org/2000/svg">
<path d="M10.3125 0C7.57845 0.00320876 4.95732 1.07484 3.02406 2.97983C1.09079 4.88482 0.00325639 7.46762 0 10.1617C0 18.8565 9.375 25.4241 9.77414 25.6992C9.93201 25.8079 10.1199 25.8661 10.3125 25.8661C10.5051 25.8661 10.693 25.8079 10.8509 25.6992C11.25 25.4241 20.625 18.8565 20.625 10.1617C20.6217 7.46762 19.5342 4.88482 17.6009 2.97983C15.6677 1.07484 13.0465 0.00320876 10.3125 0ZM10.3132 6.46687C11.0549 6.46687 11.7799 6.68359 12.3966 7.08962C13.0133 7.49565 13.4939 8.07275 13.7778 8.74795C14.0616 9.42315 14.1358 10.1661 13.9911 10.8829C13.8465 11.5997 13.4893 12.2581 12.9649 12.7749C12.4404 13.2917 11.7722 13.6436 11.0448 13.7862C10.3174 13.9288 9.56336 13.8556 8.87814 13.5759C8.19292 13.2962 7.60725 12.8226 7.19519 12.2149C6.78314 11.6073 6.5632 10.8929 6.5632 10.162C6.5632 9.18201 6.95829 8.24213 7.66155 7.54916C8.36481 6.85618 9.31864 6.46687 10.3132 6.46687Z" fill="#5BA8A0"/>
</svg>
